<?xml version="1.0" encoding="UTF-8" standalone="no"?>
<svg width="1137px" height="963px" viewBox="0 0 1137 963" version="1.1" xmlns="http://www.w3.org/2000/svg" xmlns:xlink="http://www.w3.org/1999/xlink" xmlns:sketch="http://www.bohemiancoding.com/sketch/ns">
    <!-- Generator: Sketch 3.3.2 (12043) - http://www.bohemiancoding.com/sketch -->
    <title>heartseekers copy</title>
    <desc>Created with Sketch.</desc>
    <defs></defs>
    <g id="Page-4" stroke="none" stroke-width="1" fill="none" fill-rule="evenodd" sketch:type="MSPage">
        <path d="M540.587088,951.476376 L144.731247,574.145165 C140.502018,570.802253 134.686828,565.37002 127.285677,557.848468 C119.884526,550.326916 108.148415,536.641869 92.0773448,516.793328 C76.0062743,496.944787 61.6268955,476.573916 48.9392083,455.680715 C36.251521,434.787514 24.9383333,409.506741 14.9996449,379.838395 C5.06095661,350.17005 0.0916124465,321.337432 0.0916124465,293.340543 C0.0916124465,201.410458 26.9472171,129.537846 80.6584263,77.7227079 C134.369636,25.9075693 208.592606,0 303.327337,0 C329.548557,0 356.298431,4.49203823 383.576959,13.4761147 C410.855486,22.4601911 436.230861,34.5782477 459.703082,49.8302845 C483.175303,65.0823213 503.369872,79.394164 520.286789,92.7658127 C537.203705,106.137461 553.274775,120.344838 568.5,135.387943 C583.725225,120.344838 599.796295,106.137461 616.713211,92.7658127 C633.630128,79.394164 653.824697,65.0823213 677.296918,49.8302845 C700.769139,34.5782477 726.144514,22.4601911 753.423041,13.4761147 C780.701569,4.49203823 807.451443,0 833.672663,0 C928.407394,0 1002.63036,25.9075693 1056.34157,77.7227079 C1110.05278,129.537846 1136.90839,201.410458 1136.90839,293.340543 C1136.90839,385.688491 1088.48371,479.707896 991.634369,575.398757 L596.412912,951.476376 C588.8003,958.997928 579.495996,962.758704 568.5,962.758704 C557.504004,962.758704 548.1997,958.997928 540.587088,951.476376 Z M329,323.509714 L371.577778,344.96426 L371.577778,538.055169 L446.088889,591.691532 L446.088889,387.873351 L541.888889,430.782442 L541.888889,527.327896 L658.977778,623.873351 L765.422222,516.600623 L765.422222,398.600623 L808,355.691532 L808,623.873351 L499.311111,688.236987 L329,559.509714 L329,323.509714 Z M392.866667,516.600623 L424.8,538.055169 L424.8,344.96426 L541.888889,398.600623 L541.888885,308.395991 L386.00769,216.236987 L433.00769,216.236987 L573.82222,291.327899 L573.822222,516.600623 L658.977778,580.96426 L733.488889,516.600623 C733.488889,516.600623 733.488889,509.996131 733.488889,506.693885 C733.48889,436.594587 733.488892,296.395991 733.488892,296.395991 L562.00769,216.236987 L611.00769,216.236987 L765.422211,279.395991 L765.422222,366.418805 L808,323.509714 L808,259.146078 L680.266667,216.236987 L329,216.236987 L329,291.327896 L392.866667,323.509714 L392.866667,516.600623 Z M658.977778,355.691532 L637.688889,377.146078 L637.688889,420.055169 L658.977778,441.509714 L680.266667,420.055169 L680.266667,377.146078 L658.977778,355.691532 Z" id="Shape-Copy-13" fill="#D0011B" sketch:type="MSShapeGroup"></path>
        <text id="heartseekers" sketch:type="MSTextLayer" font-family="Roboto" font-size="400" font-weight="normal" fill="#D0011B">
            <tspan x="-595" y="1264">heartseekers</tspan>
        </text>
    </g>
</svg>